<svg width="93" height="94" viewBox="0 0 93 94" fill="none" xmlns="http://www.w3.org/2000/svg">
<mask id="mask0_44143_18430" style="mask-type:alpha" maskUnits="userSpaceOnUse" x="0" y="1" width="93" height="93">
<circle cx="46.175" cy="47.175" r="46.175" fill="#D9D9D9"/>
</mask>
<g mask="url(#mask0_44143_18430)">
<path d="M-19 -2H111.167V95.6252H-19V-2Z" fill="#428BC1"/>
<path d="M-3.74606 -2L45.8801 34.8128L95.3029 -2H111.167V10.6099L62.3544 47.016L111.167 83.2187V95.6252H94.8961L46.0835 59.2192L-2.52574 95.6252H-19V83.4221L29.6092 47.2194L-19 11.0167V-2H-3.74606Z" fill="#F9F9F9"/>
<path d="M67.2356 55.1514L111.167 87.4898V95.6252L56.0494 55.1514H67.2356ZM29.8126 59.2192L31.0329 66.3377L-8.01716 95.6252H-19L29.8126 59.2192ZM111.167 -2V-1.38984L60.5239 36.8467L60.9307 27.8977L100.998 -2H111.167ZM-19 -2L29.6092 33.7959H17.4061L-19 6.54221V-2Z" fill="#ED4C5C"/>
<path d="M30.016 -2V95.6252H62.5577V-2H30.016ZM-19 30.5417V63.0835H111.167V30.5417H-19Z" fill="#F9F9F9"/>
<path d="M-19 37.2535V56.7785H111.167V37.2535H-19ZM36.5244 -2V95.6252H56.0494V-2H36.5244Z" fill="#ED4C5C"/>
</g>
</svg>
