<svg width="93" height="94" viewBox="0 0 93 94" fill="none" xmlns="http://www.w3.org/2000/svg">
<path d="M46.3559 0.8638C26.3459 0.8638 9.26038 13.7934 2.94952 31.6485H90.0702C83.6054 13.7934 66.5199 0.8638 46.3559 0.8638Z" fill="#F9F9F9"/>
<path d="M46.3559 93.2179C66.5199 93.2179 83.6054 80.2883 89.9163 62.4332H2.94952C9.26038 80.4422 26.3459 93.2179 46.3559 93.2179Z" fill="#ED4C5C"/>
<path d="M2.94949 31.6485C1.25633 36.4201 0.332794 41.6535 0.332794 47.0408C0.332794 52.4282 1.25633 57.6616 2.94949 62.4332H90.0702C91.7633 57.6616 92.6869 52.4282 92.6869 47.0408C92.6869 41.6535 91.7633 36.4201 90.0702 31.6485H2.94949Z" fill="#428BC1"/>
</svg>
